# xmcd
#
# Track frame offsets:
#	182
#	20837
#	39465
#	53590
#	69510
#	88127
#	104237
#	122142
#	127347
#	146155
#	166230
#	181382
#	199297
#	228277
#
# Disc length: 3252 seconds
#
# Revision: 0
# Processed by: cddbd v1.5.1PL0 Copyright (c) Steve Scherf et al.
# Submitted via: dBpowerAMP V4.0
#
DISCID=d50cb20e
DTITLE=Scotty Dawson - Heavitree
DYEAR=1900
DGENRE=Country
TTITLE0=Heavitree
TTITLE1=A Long Time Ago
TTITLE2=Mataranka Living
TTITLE3=Wife
TTITLE4=Sandy Becket
TTITLE5=Daddy's Girl
TTITLE6=Tezza McCarthy
TTITLE7=Old Sow
TTITLE8=Called It A Day
TTITLE9=Dushfire
TTITLE10=Waltzing Matilda
TTITLE11=Ten Pound Knapsack
TTITLE12=Johnson's Antidote
TTITLE13=Heavitree Stomp
EXTD=Scotty Dawson, local hero of Alice Springs, NT,  Australia
EXTT0=
EXTT1=
EXTT2=
EXTT3=
EXTT4=
EXTT5=
EXTT6=
EXTT7=
EXTT8=
EXTT9=
EXTT10=
EXTT11=
EXTT12=
EXTT13=
PLAYORDER=
